walker_model_states
version=1
nRows=15
nColumns=15
inDegrees=yes

# SIMM Motion File Header:
name walker_model_states
datacolumns 15
datarows 15
otherdata 1
range 0.89835172 0.90436484
endheader
time	planarjoint_/Pelvis_rot/value	planarjoint_/Pelvis_rot/speed	planarjoint_/Pelvis_tx/value	planarjoint_/Pelvis_tx/speed	planarjoint_/Pelvis_ty/value	planarjoint_/Pelvis_ty/speed	LThighToPelvis/LHip_rz/value	LThighToPelvis/LHip_rz/speed	RThighToPelvis/RHip_rz/value	RThighToPelvis/RHip_rz/speed	LShankToLThigh/LKnee_rz/value	LShankToLThigh/LKnee_rz/speed	RShankToRThigh/RKnee_rz/value	RShankToRThigh/RKnee_rz/speed
      0.89835172	      0.00000000	      0.00000000	     -0.05119916	      0.35748786	      0.36251350	     -0.04150330	    105.74414933	      5.99351251	     51.38085118	    -86.22003646	   -104.11321890	    -44.91109415	   -141.29205171	      5.81421088
      0.89870785	      0.00000000	      0.00000000	     -0.05107170	      0.35831546	      0.36249880	     -0.04106344	    105.74627360	      5.93635543	     51.35011689	    -86.38323978	   -104.12922316	    -44.96843064	   -141.28996190	      5.92212564
      0.89910346	      0.00000000	      0.00000000	     -0.05092976	      0.35923296	      0.36248265	     -0.04057547	    105.74860958	      5.87279633	     51.31590611	    -86.55669767	   -104.14702605	    -45.03134133	   -141.28759525	      6.04510902
      0.89943942	      0.00000000	      0.00000000	     -0.05080896	      0.35988781	      0.36246909	     -0.04012735	    105.75057279	      5.81198172	     51.28684918	    -86.26793159	   -104.16216107	    -45.06070448	   -141.28553098	      6.29468268
      0.89977538	      0.00000000	      0.00000000	     -0.05068799	      0.36018730	      0.36245570	     -0.03957711	    105.75251253	      5.73142795	     51.25807989	    -84.75856074	   -104.17729580	    -45.02545420	   -141.28332079	      6.93865560
      0.90018574	      0.00000000	      0.00000000	     -0.05054021	      0.35989030	      0.36243963	     -0.03868642	    105.75483797	      5.59386230	     51.22402725	    -80.81003396	   -104.19574483	    -44.86753361	   -141.28020518	      8.35806771
      0.90059611	      0.00000000	      0.00000000	     -0.05039273	      0.35873514	      0.36242400	     -0.03742767	    105.75709546	      5.39685689	     51.19206389	    -74.65082786	   -104.21409928	    -44.56072335	   -141.27638393	     10.32857762
      0.90100647	      0.00000000	      0.00000000	     -0.05024592	      0.35663210	      0.36240899	     -0.03558937	    105.75925578	      5.11529894	     51.16295511	    -67.08446040	   -104.23229315	    -44.08035236	   -141.27171208	     12.40832464
      0.90135593	      0.00000000	      0.00000000	     -0.05012172	      0.35404726	      0.36239692	     -0.03336730	    105.76098848	      4.78611133	     51.14067432	    -60.47790056	   -104.24760289	    -43.51458920	   -141.26711664	     13.80041609
      0.90170538	      0.00000000	      0.00000000	     -0.04999856	      0.35073123	      0.36238575	     -0.03042420	    105.76258991	      4.36362658	     51.12062144	    -54.40800532	   -104.26268848	    -42.79796389	   -141.26214576	     14.52406199
      0.90205484	      0.00000000	      0.00000000	     -0.04987667	      0.34673819	      0.36237574	     -0.02676578	    105.76402803	      3.85349715	     51.10255557	    -49.11678528	   -104.27749874	    -41.94197020	   -141.25705513	     14.48531361
      0.90240430	      0.00000000	      0.00000000	     -0.04975629	      0.34215302	      0.36236712	     -0.02247250	    105.76527474	      3.27104113	     51.08620665	    -44.56308738	   -104.29198863	    -40.96822281	   -141.25210433	     13.74004194
      0.90290659	      0.00000000	      0.00000000	     -0.04958626	      0.33470058	      0.36235757	     -0.01538719	    105.76668798	      2.34084838	     51.06525337	    -39.04104577	   -104.31218174	    -39.40732383	   -141.24568019	     11.66818808
      0.90355256	      0.00000000	      0.00000000	     -0.04937346	      0.32395434	      0.36235090	     -0.00507048	    105.76778574	      1.04458197	     51.04198849	    -33.17710405	   -104.33693482	    -37.20236045	   -141.23932849	      7.83634790
      0.90436484	      0.00000000	      0.00000000	     -0.04911625	      0.30916605	      0.36235250	      0.00918536	    105.76794790	     -0.64958170	     51.01761508	    -27.00237870	   -104.36596307	    -34.24840928	   -141.23521109	      2.25855321
